<svg xmlns="http://www.w3.org/2000/svg" xmlns:xlink="http://www.w3.org/1999/xlink" viewBox="0 0 667 567"><style>.st0{opacity:.2;fill:none;stroke:#e9eff1;stroke-width:.5;stroke-miterlimit:10}.st0,.st1{stroke-linecap:round;stroke-linejoin:round}.st1,.st2,.st3{fill:none;stroke:#e9eff1;stroke-miterlimit:10}.st3{stroke-linejoin:round}.st4{opacity:.1}.st13,.st14,.st6{fill:none;stroke:#e9eff1;stroke-linecap:round;stroke-linejoin:round}.st13,.st14{stroke-dasharray:1.0053,4.0211}.st14{stroke-dasharray:.9964,3.9858}.st15{fill:#e9eff1}.st16,.st21,.st22,.st23,.st24{fill:none;stroke:#e9eff1;stroke-linecap:round;stroke-linejoin:round}.st16{stroke-miterlimit:10;stroke-dasharray:1,4}.st21,.st22,.st23,.st24{stroke-dasharray:.9989,3.9956}.st22,.st23,.st24{stroke-dasharray:1.0263,4.1052}.st23,.st24{stroke-dasharray:1.0028,4.0111}.st24{stroke-dasharray:1.0093,4.0371}</style><g id="Background"><path class="st0" d="M0 28.9h667M0 50.5h667M0 72h667M0 93.5h667M0 115.1h667M0 136.6h667M0 158.1h667M0 179.7h667M0 201.2h667M0 222.7h667M0 244.3h667M0 265.8h667M0 287.3h667M0 308.9h667M0 330.4h667M0 351.9h667M0 373.5h667M0 395h667M0 416.5h667M0 438.1h667M0 459.6h667M0 481.1h667M0 502.7h667M0 524.2h667M0 545.8h667M21.2 567V0M42.8 567V0M64.3 567V0M85.9 567V0M107.4 567V0M128.9 567V0M150.5 567V0M172 567V0M193.5 567V0M215.1 567V0M236.6 567V0M258.1 567V0M279.7 567V0M301.2 567V0M322.7 567V0M344.3 567V0M365.8 567V0M387.3 567V0M408.9 567V0M430.4 567V0M451.9 567V0M473.5 567V0M495 567V0M516.5 567V0M538.1 567V0M559.6 567V0M581.1 567V0M602.7 567V0M624.2 567V0M645.8 567V0"/></g><g id="Objects"><path class="st1" d="M126 464.8h418.7v13.6H126zM427.8 129.1l92.3 92M520.7 221.8V209l-92.9-92.6"/><path class="st1" d="M528.4 225.1c0 1.7-1.4 3.1-3.1 3.1H329.2c-1.7 0-3.1-1.4-3.1-3.1v-.3c0-1.7 1.4-3.1 3.1-3.1h196.1c1.7 0 3.1 1.4 3.1 3.1v.3z"/><path class="st1" d="M520.7 221.8h16.4v-5.4L427.8 107M427.8 129.1l-92.3 92M334.9 221.8V209l92.9-92.6"/><path class="st1" d="M334.9 221.8h-16.5v-5.4L427.8 107M352.3 233.8h17.5v18h-17.5z"/><path class="st1" d="M355.1 236.7H367v12.2h-11.9z"/><path class="st2" d="M361 236.7v12.2"/><path class="st1" d="M482.9 233.8h17.5v18h-17.5z"/><path class="st1" d="M485.7 236.7h11.9v12.2h-11.9z"/><path class="st2" d="M491.6 236.7v12.2"/><path class="st1" d="M404.7 233.8h45.7v45.1h-45.7z"/><path class="st1" d="M407.7 236.8h39.7v39.1h-39.7z"/><path class="st1" d="M425.6 236.8h3.9v39.1h-3.9zM407.7 255.5h17.9v2h-17.9zM429.5 255.5h17.9v2h-17.9z"/><path class="st3" d="M416.3 236.8v18.7M438.8 236.8v18.7"/><path class="st1" d="M395 236h9.7v40.9H395z"/><path class="st1" d="M396.9 237.9h7.9v35.8h-7.9z"/><path class="st1" d="M396.9 254.3h7.9v2.7h-7.9zM450.4 236h9.7v40.9h-9.7z"/><path class="st1" d="M450.4 237.9h7.9v35.8h-7.9z"/><path class="st1" d="M450.4 254.3h7.9v2.7h-7.9zM331.8 228.2h4.1V283h-4.1zM516.6 228.2h4.1V283h-4.1zM320 283h212.4l23.7 11h-242zM316.4 296.8h228.5v2.9H316.4zM478 324.5h9.7v40.9H478z"/><path class="st1" d="M478 326.4h7.9v35.8H478z"/><path class="st1" d="M478 342.8h7.9v2.7H478zM442.6 324.5h9.7v40.9h-9.7z"/><path class="st1" d="M444.4 326.4h7.9v35.8h-7.9z"/><path class="st1" d="M444.4 342.8h7.9v2.7h-7.9zM452.3 322.1H478v45.8h-25.7z"/><path class="st1" d="M455.2 324.5h19.9v40.9h-19.9z"/><path class="st1" d="M455.2 344.1h19.9v2.4h-19.9z"/><path class="st2" d="M465.1 324.5v19.6"/><path class="st1" d="M284.2 325.3h9.7v40.9h-9.7z"/><path class="st1" d="M284.2 327.2h7.9V363h-7.9z"/><path class="st1" d="M284.2 343.6h7.9v2.7h-7.9zM248.8 325.3h9.7v40.9h-9.7z"/><path class="st1" d="M250.6 327.2h7.9V363h-7.9z"/><path class="st1" d="M250.6 343.6h7.9v2.7h-7.9zM258.5 322.9h25.7v45.8h-25.7z"/><path class="st1" d="M261.4 325.3h19.9v40.9h-19.9z"/><path class="st1" d="M261.4 345h19.9v2.4h-19.9z"/><path class="st2" d="M271.4 325.3V345"/><path class="st1" d="M204.4 325.3h9.7v40.9h-9.7z"/><path class="st1" d="M204.4 327.2h7.9V363h-7.9z"/><path class="st1" d="M204.4 343.6h7.9v2.7h-7.9zM169 325.3h9.7v40.9H169z"/><path class="st1" d="M170.8 327.2h7.9V363h-7.9z"/><path class="st1" d="M170.8 343.6h7.9v2.7h-7.9z"/><path class="st1" d="M178.6 322.9h25.7v45.8h-25.7z"/><path class="st1" d="M181.6 325.3h19.9v40.9h-19.9z"/><path class="st1" d="M181.6 345h19.9v2.4h-19.9z"/><path class="st2" d="M191.5 325.3V345"/><path class="st1" d="M338 310.5c0 .8-.7 1.5-1.5 1.5H323c-.8 0-1.5-.7-1.5-1.5s.7-1.5 1.5-1.5h13.6c.8 0 1.4.7 1.4 1.5zM335.2 312.1h-10.9l-2.9 52.7H338zM341.6 367.1c0 .8-.7 1.5-1.5 1.5h-20.8c-.8 0-1.5-.7-1.5-1.5v-.7c0-.8.7-1.5 1.5-1.5h20.8c.8 0 1.5.7 1.5 1.5v.7zM320.5 368.7h18.4V419h-18.4z"/><path class="st2" d="M320.5 368.7h12.4v6.3h-12.4zM332.9 368.7h6v6.3h-6z"/><path class="st2" d="M326.5 374.9h12.4v6.3h-12.4zM320.5 374.9h6v6.3h-6zM320.5 381.2h12.4v6.3h-12.4zM332.9 381.2h6v6.3h-6zM326.5 387.5h12.4v6.3h-12.4zM320.5 387.5h6v6.3h-6zM320.5 393.8h12.4v6.3h-12.4zM332.9 393.8h6v6.3h-6zM326.5 400.1h12.4v6.3h-12.4zM320.5 400.1h6v6.3h-6z"/><path class="st2" d="M320.5 406.4h12.4v6.3h-12.4zM332.9 406.4h6v6.3h-6zM326.5 412.7h12.4v6.3h-12.4zM320.5 412.7h6v6.3h-6z"/><path class="st1" d="M421.4 310.5c0 .8-.7 1.5-1.5 1.5h-13.6c-.8 0-1.5-.7-1.5-1.5s.7-1.5 1.5-1.5h13.6c.8 0 1.5.7 1.5 1.5zM418.5 312.1h-10.9l-2.8 52.7h16.5zM425 367.1c0 .8-.7 1.5-1.5 1.5h-20.8c-.8 0-1.5-.7-1.5-1.5v-.7c0-.8.7-1.5 1.5-1.5h20.8c.8 0 1.5.7 1.5 1.5v.7zM403.9 368.7h18.4V419h-18.4z"/><path class="st2" d="M403.9 368.7h12.4v6.3h-12.4z"/><path class="st2" d="M416.2 368.7h6v6.3h-6z"/><path class="st2" d="M409.9 374.9h12.4v6.3h-12.4zM403.9 374.9h6v6.3h-6zM403.9 381.2h12.4v6.3h-12.4z"/><path class="st2" d="M416.2 381.2h6v6.3h-6zM409.9 387.5h12.4v6.3h-12.4zM403.9 387.5h6v6.3h-6zM403.9 393.8h12.4v6.3h-12.4z"/><path class="st2" d="M416.2 393.8h6v6.3h-6zM409.9 400.1h12.4v6.3h-12.4zM403.9 400.1h6v6.3h-6z"/><path class="st2" d="M403.9 406.4h12.4v6.3h-12.4z"/><path class="st2" d="M416.2 406.4h6v6.3h-6zM409.9 412.7h12.4v6.3h-12.4zM403.9 412.7h6v6.3h-6z"/><path class="st1" d="M543.8 310.5c0 .8-.7 1.5-1.5 1.5h-13.6c-.8 0-1.5-.7-1.5-1.5s.7-1.5 1.5-1.5h13.6c.9 0 1.5.7 1.5 1.5zM540.9 312.1h-10.8l-2.9 52.7h16.6zM547.4 367.1c0 .8-.7 1.5-1.5 1.5h-20.8c-.8 0-1.5-.7-1.5-1.5v-.7c0-.8.7-1.5 1.5-1.5h20.8c.8 0 1.5.7 1.5 1.5v.7zM526.3 368.7h18.4V419h-18.4z"/><path class="st2" d="M526.3 368.7h12.4v6.3h-12.4zM538.7 368.7h6v6.3h-6z"/><path class="st2" d="M532.3 374.9h12.4v6.3h-12.4zM526.3 374.9h6v6.3h-6zM526.3 381.2h12.4v6.3h-12.4zM538.7 381.2h6v6.3h-6zM532.3 387.5h12.4v6.3h-12.4zM526.3 387.5h6v6.3h-6zM526.3 393.8h12.4v6.3h-12.4zM538.7 393.8h6v6.3h-6zM532.3 400.1h12.4v6.3h-12.4zM526.3 400.1h6v6.3h-6z"/><path class="st2" d="M526.3 406.4h12.4v6.3h-12.4zM538.7 406.4h6v6.3h-6zM532.3 412.7h12.4v6.3h-12.4zM526.3 412.7h6v6.3h-6zM515 316.7h2.6v83.4H515zM418.7 316.7h99l11-4.6h-110M407.6 312.1h-72.4l.2 4.6h72"/><path class="st1" d="M328.4 299.7v9.3M536.9 299.7v9.3M338.9 400.1h64.9v8.4h-64.9zM339.4 405.5h64.5M422.2 400.1h104.1V419H422.2zM338.9 408.5h64.9v8.4h-64.9zM339.4 413.9h64.5M338.9 416.9h64.9v8.4h-64.9zM339.4 422.2h64.5M355.4 327.2h32.1v66.5h-32.1z"/><path class="st1" d="M359.9 331.2h23v58.4h-23z"/><path class="st1" d="M369.4 331.2h3.9v58.4h-3.9z"/><circle class="st1" cx="378" cy="366.8" r="1.4"/><path class="st1" d="M373.3 358.7h9.5v3.5h-9.5zM359.9 358.7h9.5v3.5h-9.5zM338.9 374.9h16.5M387.4 374.9h16.5M126 316.7h3.8v89.7H126zM129.9 374.9h190.7v31.5H129.9zM138.4 374.9v31.5M148 374.9v31.5M157.7 374.9v31.5M167.3 374.9v31.5M177 374.9v31.5M186.6 374.9v31.5M196.3 374.9v31.5M205.9 374.9v31.5M215.6 374.9v31.5M225.2 374.9v31.5M234.9 374.9v31.5M244.5 374.9v31.5M254.2 374.9v31.5M263.8 374.9v31.5M273.4 374.9v31.5M283.1 374.9v31.5M292.7 374.9v31.5M302.4 374.9v31.5M312 374.9v31.5"/><g><path class="st3" d="M427.8 400.1V419M437.2 400.1V419M446.5 400.1V419M455.8 400.1V419M465.1 400.1V419M474.5 400.1V419M483.8 400.1V419M493.1 400.1V419M502.4 400.1V419M511.8 400.1V419M521.1 400.1V419"/></g><g><circle class="st2" cx="427.6" cy="168.9" r="20.3"/><circle class="st2" cx="427.6" cy="168.9" r="15.5"/><path class="st2" d="M425 184.1c.8.1 1.7.2 2.6.2.9 0 1.7-.1 2.6-.2v-30.5c-.8-.1-1.7-.2-2.6-.2-.9 0-1.7.1-2.6.2v30.5zM412.1 168.9v1H425v-2.1h-12.8c-.1.4-.1.7-.1 1.1z"/><path class="st2" d="M443 168.9v1h-12.8v-2.1H443v1.1z"/></g><path class="st2" d="M355.7 201h144.2M346.5 210.2v11.6M359.9 201v20.8M373.3 201v20.8M386.6 201v20.8M400 201v20.8M413.4 201v20.8M426.8 201v20.8M440.2 201v20.8M453.5 201v20.8M466.9 201v20.8M480.3 201v20.8M493.7 201v20.8M507.1 208.2v13.6M359.9 196.9h135.9"/><path class="st1" d="M558.3 295.4c0 .8-.6 1.4-1.4 1.4H311.8c-.8 0-1.4-.6-1.4-1.4 0-.8.6-1.4 1.4-1.4h245.1c.8 0 1.4.7 1.4 1.4zM328.4 303H108.9c-.8 0-1.4.6-1.4 1.4s.6 1.4 1.4 1.4h219.4V303z"/><path class="st1" d="M112.8 305.7h215.6v3.2H112.8zM324.1 316.7H120V309M112.8 303l47.5-52.4h50.1"/><g><path class="st1" d="M230.8 243.5h45.7v45.1h-45.7z"/><path class="st1" d="M233.9 246.5h39.7v39.1h-39.7z"/><path class="st1" d="M251.7 246.5h3.9v39.1h-3.9z"/><path class="st1" d="M233.9 265.2h17.9v2h-17.9zM255.7 265.2h17.9v2h-17.9z"/><path class="st3" d="M242.4 246.5v18.7M265 246.5v18.7"/><g><path class="st1" d="M221.2 245.8h9.7v40.9h-9.7z"/><path class="st1" d="M223 247.7h7.9v35.8H223z"/><path class="st1" d="M223 264h7.9v2.7H223z"/></g><g><path class="st1" d="M276.6 245.8h9.7v40.9h-9.7z"/><path class="st1" d="M276.6 247.7h7.9v35.8h-7.9z"/><path class="st1" d="M276.6 264h7.9v2.7h-7.9z"/></g><g><path class="st1" d="M210.5 236.8h3.7v51.8h-3.7zM293.2 236.8h3.7v51.8h-3.7z"/></g></g><path class="st2" d="M205.9 232.6h95.6v4.2h-95.6z"/><path class="st3" d="M279.5 205h-51.7l-26.3 24.1v3.5h104.4v-3.5zM296.9 250.6h34.9M201.5 229.1h104.4M169 250.6l33.4-38.1h17.2M287.7 212.5h34.6M550.5 419.1H403.9v6.1h146.7c.9 0 1.7-.7 1.7-1.6v-2.9c-.1-.9-.9-1.6-1.8-1.6zM313.7 419.1h25.1v6.1h-25.1c-.9 0-1.7-.7-1.7-1.6v-2.9c0-.9.8-1.6 1.7-1.6z"/><path class="st1" d="M544.7 425.2v39.6H126v-52.1"/><path class="st3" d="M320.5 406.4H120.9c-.9 0-1.7.7-1.7 1.7v3c0 .9.7 1.7 1.7 1.7h199.6v-6.4z"/><g class="st4"><defs><path id="SVGID_1_" class="st4" d="M126 412.7v52.1h418.7v-39.6H314.4c-2.4 0-2.4-1.1-2.4-2.5v-2c0-1.1.6-1.6 2.5-1.6h6v-6.4H126z"/></defs><clipPath id="SVGID_2_"><use xlink:href="#SVGID_1_" overflow="visible"/></clipPath><g clip-path="url(#SVGID_2_)"><path class="st1" d="M96 464.8l30.5-52.1M132.9 412.7l-30.5 52.1M139.3 412.7l-30.5 52.1M145.8 412.7l-30.6 52.1M152.2 412.7l-30.5 52.1M158.6 412.7l-30.5 52.1M165 412.7l-30.5 52.1M171.4 412.7l-30.5 52.1M177.8 412.7l-30.5 52.1M184.2 412.7l-30.5 52.1M190.6 412.7l-30.5 52.1M197 412.7l-30.5 52.1M203.5 412.7l-30.6 52.1M209.9 412.7l-30.5 52.1M216.3 412.7l-30.5 52.1M222.7 412.7l-30.5 52.1M229.1 412.7l-30.5 52.1M235.5 412.7L205 464.8M241.9 412.7l-30.5 52.1M248.3 412.7l-30.5 52.1M254.7 412.7l-30.5 52.1M261.2 412.7l-30.6 52.1M267.6 412.7l-30.5 52.1M274 412.7l-30.5 52.1M280.4 412.7l-30.5 52.1M286.8 412.7l-30.5 52.1M293.2 412.7l-30.5 52.1M299.6 412.7l-30.5 52.1M306 412.7l-30.5 52.1M312.4 412.7l-30.5 52.1M318.9 412.7l-30.6 52.1M325.3 412.7l-30.5 52.1M331.7 412.7l-30.5 52.1M338.1 412.7l-30.5 52.1M344.5 412.7L314 464.8M350.9 412.7l-30.5 52.1M357.3 412.7l-30.5 52.1M363.7 412.7l-30.5 52.1M370.1 412.7l-30.5 52.1M376.6 412.7L346 464.8M383 412.7l-30.5 52.1M389.4 412.7l-30.5 52.1M395.8 412.7l-30.5 52.1M402.2 412.7l-30.5 52.1M408.6 412.7l-30.5 52.1M415 412.7l-30.5 52.1M421.4 412.7l-30.5 52.1M427.8 412.7l-30.5 52.1M434.3 412.7l-30.6 52.1M440.7 412.7l-30.5 52.1M447.1 412.7l-30.5 52.1M453.5 412.7L423 464.8M459.9 412.7l-30.5 52.1M466.3 412.7l-30.5 52.1M472.7 412.7l-30.5 52.1M479.1 412.7l-30.5 52.1M485.5 412.7L455 464.8M492 412.7l-30.6 52.1M498.4 412.7l-30.5 52.1M504.8 412.7l-30.5 52.1M511.2 412.7l-30.5 52.1M517.6 412.7l-30.5 52.1M524 412.7l-30.5 52.1M530.4 412.7l-30.5 52.1M536.8 412.7l-30.5 52.1M543.2 412.7l-30.5 52.1M549.7 412.7l-30.5 52.1M556.1 412.7l-30.5 52.1M562.5 412.7L532 464.8M568.9 412.7l-30.5 52.1"/></g></g><path class="st1" d="M126.5 501.5h418.7"/><g><path class="st6" d="M427.8 107h.5"/><path fill="none" stroke="#e9eff1" stroke-linecap="round" stroke-linejoin="round" stroke-dasharray=".985,3.94" d="M432.2 107h136"/><path class="st6" d="M570.1 107h.5"/></g><g><path class="st6" d="M537.1 221.1h.5"/><path fill="none" stroke="#e9eff1" stroke-linecap="round" stroke-linejoin="round" stroke-dasharray=".999,3.9959" d="M541.6 221.1h68"/><path class="st6" d="M611.6 221.1h.5"/></g><g><path class="st6" d="M97.9 212.5h.5"/><path fill="none" stroke="#e9eff1" stroke-linecap="round" stroke-linejoin="round" stroke-dasharray="1.0207,4.0826" d="M102.5 212.5h105.1"/><path class="st6" d="M209.7 212.5h.5"/></g><g><path class="st6" d="M59.4 303h.5"/><path fill="none" stroke="#e9eff1" stroke-linecap="round" stroke-linejoin="round" stroke-dasharray=".9625,3.8501" d="M63.7 303h41.4"/><path class="st6" d="M107 303h.5"/></g><g><path class="st6" d="M97.9 478.4h.5"/><path fill="none" stroke="#e9eff1" stroke-linecap="round" stroke-linejoin="round" stroke-dasharray="1.0013,4.0054" d="M102.4 478.4h23"/><path class="st6" d="M127.4 478.4h.5"/></g><g><path class="st6" d="M545.2 478.4h.5"/><path fill="none" stroke="#e9eff1" stroke-linecap="round" stroke-linejoin="round" stroke-dasharray="1.0795,4.3181" d="M550 478.4h19.5"/><path class="st6" d="M571.6 478.4h.5"/></g><g><path class="st6" d="M536.7 283h.5"/><path class="st13" d="M541.2 283h68.3"/><path class="st6" d="M611.6 283h.5"/></g><g><path class="st6" d="M536.7 312.1h.5"/><path class="st13" d="M541.2 312.1h68.3"/><path class="st6" d="M611.6 312.1h.5"/></g><g><path class="st6" d="M536.7 425.2h.5"/><path class="st14" d="M541.2 425.2h92.6"/><path class="st6" d="M635.8 425.2h.5"/></g><g><path class="st6" d="M536.7 368.7h.5"/><path class="st14" d="M541.2 368.7h92.6"/><path class="st6" d="M635.8 368.7h.5"/></g><path class="st1" d="M585.3 106.7v371.7M575.7 106.7h19.1M575.7 478.4h19.1M83.9 212.5v265.9M74.4 212.5h19.1M74.4 478.4h19.1M126.5 511v-19.1M545.2 511v-19.1"/><g><path class="st6" d="M603.6 224.3v55.6"/><path class="st15" d="M610 225.2l-6.4-4.1-6.5 4.1v.1H610zM610 278.9l-6.4 4.1-6.5-4.1H610z"/></g><g><path class="st6" d="M210.9 516.9h-38.8"/><path class="st15" d="M210 523.3l4.1-6.4-4.1-6.4h-.1v12.8zM173 523.3l-4-6.4 4-6.4h.1v12.8z"/></g><g><path class="st6" d="M603.6 315.2v106.9"/><path class="st15" d="M610 316.1l-6.4-4-6.5 4v.1H610zM610 421.2l-6.4 4-6.5-4v-.1H610z"/></g><g><path class="st6" d="M624.6 371.8v50.3"/><path class="st15" d="M631 372.7l-6.4-4-6.5 4v.1H631zM631 421.2l-6.4 4-6.5-4v-.1H631z"/></g><g><path class="st6" d="M401.6 516.9H342"/><path class="st15" d="M400.6 523.3l4.1-6.4-4.1-6.4v12.8zM343 523.3l-4.1-6.4 4.1-6.4v12.8z"/></g><g><path class="st6" d="M332.9 151.7v34.2"/><path class="st15" d="M339.4 152.7l-6.5-4.1-6.4 4.1h12.9zM339.4 185l-6.5 4-6.4-4v-.1h12.9z"/></g><g><path class="st6" d="M301.9 138.9h-97.3"/><path class="st15" d="M300.9 145.3l4.1-6.4-4.1-6.4v12.8zM205.6 145.3l-4.1-6.4 4.1-6.4v12.8z"/></g><g><path class="st6" d="M277.4 113.5h-46.3"/><path class="st15" d="M276.4 119.9l4.1-6.4-4.1-6.4v12.8zM232.1 119.9l-4.1-6.4 4.1-6.4v12.8z"/></g><g><path class="st6" d="M457 69.5h-58.4"/><path class="st15" d="M456 75.9l4.1-6.4L456 63v12.9zM399.5 75.9l-4-6.4 4-6.5h.1v12.9z"/></g><g><path class="st6" d="M68 254.9v45.7"/><path class="st15" d="M74.5 255.8l-6.5-4-6.4 4v.1h12.9zM74.5 299.7l-6.5 4-6.4-4v-.1h12.9z"/></g><g><path class="st6" d="M68 319.7v83.6"/><path class="st15" d="M74.5 320.7l-6.5-4.1-6.4 4.1h12.9zM74.5 402.3l-6.5 4.1-6.4-4.1h12.9z"/></g><g><path class="st6" d="M41.4 378.1v25.2"/><path class="st15" d="M47.9 379l-6.5-4.1L35 379v.1h12.9zM47.9 402.3l-6.5 4.1-6.4-4.1h12.9z"/></g><g><path class="st6" d="M68 415.8v45.9"/><path class="st15" d="M74.5 416.8l-6.5-4.1-6.4 4.1h12.9zM74.5 460.8l-6.5 4-6.4-4v-.1h12.9z"/></g><g><path class="st16" d="M537.1 143.1v111.2"/></g><g><path class="st6" d="M553.9 201.6l-.4-.3"/><path fill="none" stroke="#e9eff1" stroke-linecap="round" stroke-linejoin="round" stroke-dasharray=".9842,3.9368" d="M550.7 198.5l-75.3-75"/><path class="st6" d="M474 122.1l-.4-.3"/><path class="st15" d="M548.7 205.5l7.4-1.7 1.6-7.4-9.1 9.1zM469.8 127l1.6-7.4 7.4-1.7h.1l-9.1 9.2z"/></g><path class="st1" d="M536.7 154.5c-8.5 0-16.2 3.7-21.5 9.5"/><g><path class="st16" d="M427.6 148.6H320.8"/></g><g><path class="st16" d="M425.6 189H320.8"/></g><g><path class="st16" d="M201.5 232.6V127.4"/></g><g><path class="st16" d="M228 204.8V99.6"/></g><g><path class="st16" d="M279.6 204.8V99.6"/></g><g><path class="st16" d="M160.3 250.6V105.4"/></g><g><path class="st16" d="M112.8 303.1V154"/></g><g><path class="st16" d="M305 232.6V127.4"/></g><g><path fill="none" stroke="#e9eff1" stroke-linecap="round" stroke-linejoin="round" stroke-dasharray="1,4" d="M97.7 169.5L181 84.3"/><path class="st15" d="M93.7 164.3l1.8 7.4 7.4 1.6h.1l-9.2-9zM175.7 80.5l7.5 1.6 1.7 7.4-9.2-9z"/></g><g><path class="st6" d="M160.3 250.6h-.5"/><path fill="none" stroke="#e9eff1" stroke-linecap="round" stroke-linejoin="round" stroke-dasharray="1.0097,4.0388" d="M155.8 250.6H61.9"/><path class="st6" d="M59.9 250.6h-.5"/></g><g><path class="st6" d="M120 316.7h-.5"/><path fill="none" stroke="#e9eff1" stroke-linecap="round" stroke-linejoin="round" stroke-dasharray="1.0105,4.042" d="M115.4 316.7H61.9"/><path class="st6" d="M59.9 316.7h-.5"/></g><g><path class="st6" d="M124 406.4h-.5"/><path class="st21" d="M119.5 406.4H31.6"/><path class="st6" d="M29.6 406.4h-.5"/></g><g><path class="st6" d="M124 374.9h-.5"/><path class="st21" d="M119.5 374.9H31.6"/><path class="st6" d="M29.6 374.9h-.5"/></g><g><path class="st6" d="M124 412.7h-.5"/><path class="st22" d="M119.4 412.7H54.7"/><path class="st6" d="M52.7 412.7h-.5"/></g><g><path class="st6" d="M124 464.8h-.5"/><path class="st22" d="M119.4 464.8H54.7"/><path class="st6" d="M52.7 464.8h-.5"/></g><g><path class="st6" d="M169 365.5v.5"/><path class="st23" d="M169 370v158.4"/><path class="st6" d="M169 530.4v.5"/></g><g><path class="st6" d="M214.1 365.5v.5"/><path class="st23" d="M214.1 370v158.4"/><path class="st6" d="M214.1 530.4v.5"/></g><g><path class="st6" d="M395 236v-.5"/><path class="st24" d="M395 231.5V61.9"/><path class="st6" d="M395 59.9v-.5"/></g><g><path class="st6" d="M460.1 236v-.5"/><path class="st24" d="M460.1 231.5V61.9"/><path class="st6" d="M460.1 59.9v-.5"/></g><g><path class="st16" d="M338.9 423.8v107.1"/></g><g><path class="st16" d="M403.9 423.8v107.1"/></g><g><path class="st6" d="M523.2 516.9H426"/><path class="st15" d="M522.3 523.3l4-6.4-4-6.4h-.1v12.8zM427 523.3l-4.1-6.4 4.1-6.4v12.8z"/></g><g><path class="st16" d="M422.2 416.8v114.1"/></g><g><path class="st16" d="M526.3 416.8v114.1"/></g><path class="st1" d="M160.3 148.5c-11.6 0-22-4.7-29.6-12.3"/></g></svg>
